<svg xmlns="http://www.w3.org/2000/svg" id="Livello_1" data-name="Livello 1" viewBox="0 0 512 512"><defs><style>.cls-1{fill:#fff;}.cls-2{fill:#a01622;}.cls-3{fill:#001a31;}</style></defs><path class="cls-1" d="M511,256c0,140.84-114.17,255-255,255S1,396.84,1,256,115.19,1,256,1,511,115.16,511,256"></path><path class="cls-2" d="M419.53,256A163.53,163.53,0,1,1,256,92.46,163.55,163.55,0,0,1,419.53,256"></path><path class="cls-1" d="M275.77,263a2,2,0,0,0-1.55.57,2.48,2.48,0,0,0-.69,1.6l-.43,5.57c1.4.13,2.76.27,4.11.43l.43-5.71a2.64,2.64,0,0,0-.45-1.67,1.93,1.93,0,0,0-1.42-.79"></path><path class="cls-1" d="M252.85,260.76a2.29,2.29,0,0,0-1.67.76,2.94,2.94,0,0,0-.68,1.9v6.43c.52,0,1,0,1.51-.07,1.08,0,2.12.07,3.16.07v-6.43a2.93,2.93,0,0,0-.66-1.9,2.25,2.25,0,0,0-1.66-.76"></path><path class="cls-1" d="M232,263.26a1.82,1.82,0,0,0-1.52-.57,1.88,1.88,0,0,0-1.41.81,2.46,2.46,0,0,0-.45,1.69l.52,5.95c1.39-.16,2.69-.31,4.11-.43l-.52-5.89a2.37,2.37,0,0,0-.73-1.56"></path><path class="cls-1" d="M270.84,272.9c-6-.33-12.41-.49-18.81-.37a393,393,0,0,0-40.49,2.29,121.71,121.71,0,0,0,14.91,7.41,95,95,0,0,1,26.88,16.63,95.34,95.34,0,0,1,26.88-16.63A123.13,123.13,0,0,0,294.84,275c-2.22-.28-4.77-.55-7.64-.83-4.75-.61-10.37-.89-16.36-1.25"></path><path class="cls-1" d="M255.41,223.48v-6.24a3.1,3.1,0,0,0-.77-2.09,2.35,2.35,0,0,0-1.82-.81,2.43,2.43,0,0,0-1.86.81,3.22,3.22,0,0,0-.72,2.09v6.31c1,0,2-.1,3-.1.72,0,1.45,0,2.16,0"></path><path class="cls-1" d="M226.46,225.19,225.9,219a2.6,2.6,0,0,0-.8-1.73,2.16,2.16,0,0,0-1.7-.65,2.18,2.18,0,0,0-1.54.92,2.72,2.72,0,0,0-.49,1.86l.58,6.44c1.47-.21,2.93-.42,4.51-.61"></path><path class="cls-1" d="M200.15,266a47.45,47.45,0,0,0,9.9,8c2-.4,4.17-.82,6.58-1.22,1.67-.28,3.54-.52,5.38-.76l-.52-6,0-.16,0-.15s.33-1,.71-2.35l.09-.34.08-.33c.32-1.17.58-2.19.77-3.11l.07-.36.07-.32a15.4,15.4,0,0,0,.22-1.64v-.58l-.66-7.72L221.13,247l-.51-5.8,1.53-.15.92-.06.19,2.31h.52l-.19-2.36,1.44-.13,1.35-.12.21,2.33.68,0-.23-2.34,3.23-.28.19,2.33.68-.07-.19-2.29,1.3-.16,1.42-.12.23,2.36.66-.1-.21-2.31.76-.07,1.63-.12.51,5.79-1.34,2.14.68,7.72h0l.13.59a12.48,12.48,0,0,0,.46,1.58l.12.29.12.35c.36.85.8,1.82,1.32,2.93l.12.33.19.3c.59,1.25,1.08,2.17,1.09,2.17l.11.12v.19l.5,5.92c.54-.07,1.06-.09,1.63-.12v-6.72l0-.17s.47-1.11,1-2.54l.16-.4.15-.39c.47-1.29.85-2.42,1.17-3.42l.12-.4.08-.37c.19-.69.33-1.33.44-1.82l0-.36v-9l-1.72-2.31v-6.6h2.76v2.62h.59v-2.62h3.14v2.62h.79v-2.62h3.67v2.62h.75v-2.62h3.14v2.62h.73v-2.62h2.72v6.6l-1.71,2.31v8.76l.1.64a9.12,9.12,0,0,0,.38,1.82l.09.4.14.37c.29,1,.67,2.17,1.14,3.42l.16.39.14.37c.57,1.46,1,2.53,1,2.53l.07.18v6.78c.75,0,1.47.09,2.2.12l.44-5.5v-.17l.07-.12s.49-1,1.08-2.17l.16-.33.13-.35c.53-1.09.94-2.06,1.29-2.93l.14-.37.1-.29a11.1,11.1,0,0,0,.49-1.56l.07-.37v-.21l.61-7.72L269.16,246l.47-5.83,1.53.12.86.07-.13,2.34.5,0,.21-2.32,1.42.1v0l1.35.1-.19,2.31.66.07.21-2.36,3.23.28-.19,2.34.64,0,.21-2.35,1.32.13,1.44.12-.19,2.31.67.07.18-2.35.74.09,1.63.12-.45,5.83-1.68,1.89-.63,7.69h0l.05.61a14,14,0,0,0,.21,1.65l.07.29.09.37c.19.92.43,1.92.76,3.08l.14.37.09.33c.4,1.32.71,2.29.71,2.29l.07.19,0,.16-.47,6c.9.12,1.89.27,2.73.4,3.42.55,6.17,1.16,8.59,1.73A48.21,48.21,0,0,0,306.52,266c4.41-4.94,6-10.31,4.93-16.43-5.78-32.61,1.72-52.69,7.38-62.44C300.41,174.77,277.21,168,253.33,168s-47.06,6.75-65.5,19.11c5.65,9.75,13.15,29.83,7.37,62.44-1.09,6.12.54,11.49,5,16.43m13.36-45.81,0-.19.06-.12s.34-1.13.76-2.59l.14-.36.08-.4c.35-1.29.65-2.45.86-3.42l.08-.42.07-.35a15.8,15.8,0,0,0,.23-1.82l0-.36,0-.28-.75-8.52-1.87-2.07-.56-6.4,1.7-.16,1-.08.21,2.55.61,0-.25-2.6,1.6-.12,1.48-.12.24,2.56.71-.07-.21-2.58,3.56-.31.24,2.6.73-.07-.24-2.59,1.47-.15,1.58-.12.21,2.58.75-.05-.25-2.62.85-.07v0l1.81-.2.57,6.44-1.49,2.38.74,8.52.14.64c.13.49.3,1,.54,1.74l.12.33.16.4c.38.92.87,2,1.42,3.21l.18.36.19.37c.66,1.37,1.19,2.34,1.21,2.37l.09.16,0,.16.5,5.93,6.52-.42V217.2l.06-.19s.52-1.21,1.12-2.81l.18-.45.15-.4c.52-1.4,1-2.67,1.29-3.78l.14-.45.08-.4a15.16,15.16,0,0,0,.49-2.05l0-.42v-9.94l-1.89-2.53v-7.29H246v2.91h.64v-2.91h3.49v2.91H251v-2.91H255v2.91h.83v-2.91h3.45v2.91h.82v-2.91h3v7.29l-1.89,2.53V206l.1.72a14.36,14.36,0,0,0,.42,2l.1.4.16.45c.31,1.11.76,2.38,1.29,3.78l.15.43.16.4c.62,1.62,1.13,2.81,1.13,2.81l.1.21v6.53c2.38.12,4.74.24,7,.43l.45-5.78v-.15l.07-.14s.52-1,1.18-2.41l.19-.37.14-.36c.59-1.23,1-2.29,1.4-3.25l.16-.38.14-.31a16.16,16.16,0,0,0,.52-1.77l.09-.37,0-.27.68-8.51-1.53-2.36.52-6.44,1.68.13,1,.1-.18,2.59.58,0,.2-2.6,1.58.14,1.5.12-.21,2.58.76.06.17-2.59,3.6.28-.21,2.58.73.07.21-2.57,1.45.09,1.56.16-.17,2.57.71.05.21-2.59.85,0,1.77.16-.5,6.44-1.84,2.1-.68,8.52,0,.64c.07.49.12,1.09.26,1.79l.07.38.08.38c.19,1,.52,2.17.89,3.42l.1.4.09.36c.45,1.48.81,2.54.85,2.57l0,.16,0,.17-.55,7c3,.57,5.67,1.2,7.58,1.65l4.31,1.09s-1.62-.17-4.41-.54-6.77-.92-11.54-1.4-10.4-.89-16.38-1.23-12.41-.51-18.82-.39a410.68,410.68,0,0,0-51.15,3.56s4.61-1.3,12-2.67Z"></path><path class="cls-1" d="M284.77,219.24a2.81,2.81,0,0,0-.54-1.85,2.2,2.2,0,0,0-1.53-.92,2.17,2.17,0,0,0-1.7.67,2.67,2.67,0,0,0-.78,1.77l-.49,6c1.58.18,3,.4,4.53.65Z"></path><path class="cls-1" d="M217.11,302.74c-2.48-.77-8.15-3.82-13-4.06-3.75-.21-5.69,3.33-11.11,4.42,7.78-.12,15.81,7.34,24.07-.36m-9.06-7.15a12.89,12.89,0,0,0,2.42,1.8c2.69,1,5.51,2,8.31,2.81-.31-10.13-10.47-10.67-15.32-16,2.72,4.39,2,8.94,4.59,11.37m-4.21,1c-2.17-1-6.93-4.46-11.27-5.26-3.38-.64-5.57,2.32-10.58,2.65,7,.84,13.41,8.58,21.85,2.61m-7.55-8.42c2.46,3.26,6.85,4.89,8.87,6,1.47-9.41-7.73-11.35-11.35-16.88,1.8,4.3.53,8.27,2.48,10.84m-2.8,1.27c-1.71-1.37-5.24-5.49-9-7.17-2.88-1.28-5.48.85-10.08.11,6.16,2.25,10.18,10.6,19,7.06M187.25,279c1.3,3.46,4.65,6,6.09,7.5,3.69-7.74-3.73-11.77-5.43-17.48.43,4.19-1.65,7.26-.66,10m-2.31,1.58c-1.32-1.37-3.82-5.36-6.84-7.29-2.29-1.45-4.84.07-8.69-1.16,5,2.73,7.44,10.41,15.53,8.45m-4.15-9.46c.75,3.22,3.44,5.9,4.55,7.36,4.15-6.44-2-10.86-2.81-16.14-.11,3.79-2.33,6.29-1.74,8.78M176,263.47c.27,2.84,2.24,5.43,3,6.83,4.35-5-.38-9.54-.47-14.12-.54,3.21-2.73,5.1-2.54,7.29m2.4,8.55c-1-1.25-2.83-4.67-5.17-6.44-1.82-1.35-4-.24-7.08-1.49,3.94,2.52,5.5,9,12.25,7.93m2.62,3a62.39,62.39,0,0,0,16.07,16.57c14.23,9.79,28.94,11.77,37.4,13.37l.2-1.23a103.31,103.31,0,0,1-15.89-3.48,3.54,3.54,0,0,1,0,.46c-1.86-.66-5.33-1.46-8.33-3.27a58.39,58.39,0,0,1-12.93-6.52,64.7,64.7,0,0,1-9.91-8.63,82.31,82.31,0,0,1-15-23.53l-.59.19A92.6,92.6,0,0,0,181,275m-8.4-18.76c.05,2.33,1.49,4.58,2,5.75,3.39-3.37,1-6.84.56-10.21l-.45-.2c-.8,1.89-2.17,3.14-2.14,4.66m-7.29.65v0c2.21,2.9,3.14,7.32,8.33,7.32-.69-1.19-1.77-4.37-3.5-6.19-1.17-1.2-2.76-.89-4.74-1.72Z"></path><path class="cls-1" d="M295.28,302.73c8.26,7.72,16.28.24,24.05.36-5.41-1.09-7.35-4.63-11.1-4.41-4.81.25-10.47,3.3-13,4.05m9.06-7.14c2.54-2.44,1.86-7,4.58-11.38-4.84,5.31-15,5.87-15.32,16,2.81-.83,5.62-1.77,8.33-2.81a13.1,13.1,0,0,0,2.41-1.81m4.2,1c8.43,6,14.82-1.77,21.88-2.59-5.05-.33-7.23-3.3-10.62-2.66-4.33.8-9.09,4.24-11.26,5.25m7.57-8.42c1.92-2.57.67-6.53,2.46-10.83-3.61,5.52-12.82,7.48-11.33,16.87,2-1.13,6.39-2.78,8.87-6m2.79,1.28c8.85,3.54,12.88-4.82,19-7.08-4.6.77-7.2-1.37-10.1-.08-3.72,1.68-7.22,5.79-8.94,7.16M325.15,279c1-2.73-1.11-5.8-.66-10-1.7,5.71-9.16,9.74-5.43,17.48,1.44-1.5,4.79-4.07,6.09-7.5m2.31,1.58c8.08,2,10.51-5.73,15.53-8.45-3.85,1.21-6.39-.32-8.71,1.16-3,1.93-5.5,5.92-6.82,7.29m4.14-9.46c.59-2.5-1.63-5-1.7-8.78-.86,5.27-7,9.7-2.84,16.14,1.11-1.48,3.78-4.15,4.54-7.36m4.79-7.69c.21-2.18-2-4.08-2.51-7.29-.09,4.59-4.81,9.1-.47,14.13.76-1.41,2.72-4,3-6.84M334,272c6.76,1.11,8.29-5.4,12.26-7.93-3.08,1.25-5.27.16-7.09,1.49-2.33,1.77-4.19,5.19-5.17,6.44m-2.62,3a90.71,90.71,0,0,0,9-16.09l-.59-.17a81.48,81.48,0,0,1-15.06,23.51,62.18,62.18,0,0,1-9.93,8.64,58.22,58.22,0,0,1-12.89,6.53c-3,1.79-6.49,2.58-8.33,3.26v-.45a104,104,0,0,1-15.88,3.47l.19,1.22c8.44-1.58,23.17-3.56,37.4-13.37A62.09,62.09,0,0,0,331.4,275m8.39-18.76c0-1.53-1.33-2.78-2.13-4.67l-.43.21c-.47,3.37-2.85,6.84.53,10.19.56-1.17,2-3.42,2-5.73m7.19.09c-2,.83-3.56.52-4.7,1.7-1.76,1.84-2.83,5-3.51,6.19,5.17,0,6.13-4.42,8.31-7.32v0Z"></path><path class="cls-1" d="M273.31,152.62c-2.12-1.77-9.37-3.78-19-3.78-8.87,0-16.42,2.08-18.83,3.66h0l-1.16.69a1.91,1.91,0,0,0,.24.32l.33.24c2.83,2.17,11,3.11,19.07,3.11,8.5,0,17.46-1,20.23-3.23a3.37,3.37,0,0,0-.83-1"></path><path class="cls-1" d="M285,135.26a2.31,2.31,0,0,0-2.32,0,9.42,9.42,0,0,1-1.27.33,5.35,5.35,0,0,1-1.15-.07,3,3,0,0,0-2,.32,2.58,2.58,0,0,0-.83,3.17,1.76,1.76,0,0,1,.1.3,3.39,3.39,0,0,1-1.14-.89,3.72,3.72,0,0,1-.64-1.25l-.11-.33-.29.21a4.19,4.19,0,0,1-2.08.75c-.13,0-.18-.11-.2-.32s.23-.31.49-.48a1.81,1.81,0,0,0,.94-1.13,2.83,2.83,0,0,0-.47-2.29,1.63,1.63,0,0,0-1.35-.57h-.37a1.56,1.56,0,0,1,0-.65,2.4,2.4,0,0,0-.07-1.38,2.79,2.79,0,0,0-2.44-1.58,3,3,0,0,0-1.7.55,1.77,1.77,0,0,0-.58.7,1.24,1.24,0,0,1-.41.52,1.56,1.56,0,0,1-1.13.08,3.61,3.61,0,0,0-1.15,0,2.1,2.1,0,0,0-1.64,2.22,2.67,2.67,0,0,0,.41,1.2l.18.3a.74.74,0,0,1-.4.12c-.14,0-.23,0-.25-.06a15.48,15.48,0,0,1-1.52-1.73l-.14-.23-.23.2a7,7,0,0,1-1.89.85.4.4,0,0,1-.47-.21,3.49,3.49,0,0,0,1.22-1.89,2.18,2.18,0,0,0-1.48-2.33,1.47,1.47,0,0,0-.76-.05,1.24,1.24,0,0,1-.52-.07.81.81,0,0,1-.51-.42,1.77,1.77,0,0,1-.15-.59,1.72,1.72,0,0,0-.3-.85,2.37,2.37,0,0,0-2-1,2.58,2.58,0,0,0-1.88.76,2.49,2.49,0,0,0-.55,1.18c-.12.47-.19.73-.56.92a1.36,1.36,0,0,1-.5,0,1.64,1.64,0,0,0-.8.05,2.28,2.28,0,0,0-1.46,2.33,3.49,3.49,0,0,0,1.22,1.89.38.38,0,0,1-.45.21,9.76,9.76,0,0,1-1.81-.65l-.15-.08-.11.08a16.09,16.09,0,0,0-1.79,1.5c-.12.12-.55,0-.55,0a1.46,1.46,0,0,1,.12-.4c.26-.76.49-1.33.35-1.65a2.86,2.86,0,0,1-.19-.41c-.26-.61-.45-1.13-1.36-1.29a3.66,3.66,0,0,0-1.16,0,1.5,1.5,0,0,1-1.11-.08,1.28,1.28,0,0,1-.43-.52,1.79,1.79,0,0,0-.56-.7,3.1,3.1,0,0,0-1.72-.55,2.79,2.79,0,0,0-2.44,1.58,2.32,2.32,0,0,0-.06,1.38c0,.21.11.58,0,.65h-.11a1.75,1.75,0,0,0-1.61.57,2.89,2.89,0,0,0-.47,2.29,1.91,1.91,0,0,0,.94,1.13c.26.17.5.36.5.48s-.08.28-.21.32h-.26a4.35,4.35,0,0,1-1.71-.57l-.21-.12-.14.24a7.27,7.27,0,0,1-.78,1.06,3,3,0,0,1-1.15.89,3.08,3.08,0,0,1,.09-.3,2.58,2.58,0,0,0-.83-3.17,3,3,0,0,0-2-.32,5.35,5.35,0,0,1-1.15.07,10,10,0,0,1-1.25-.33,2.31,2.31,0,0,0-2.32,0c-1.08.83-1.7,2.2-.8,3.38a19.2,19.2,0,0,0,4.15,4.29l2.63,3.51a7.19,7.19,0,0,0,.61,2,6.88,6.88,0,0,0,1.54,1.71l1.39,1.86,1.84-1c2.08-1.39,9.86-4,19.23-4,9.58,0,16.82,2.29,19.47,4.06,0,0,.73.48,1.49,1.06l1.22-1.91a9.07,9.07,0,0,0,1.46-1.44,6.35,6.35,0,0,0,1-2.34l2.57-3.42a22.15,22.15,0,0,0,4.23-4.38c.9-1.18.26-2.51-.8-3.38m-50.81,14.4a1.13,1.13,0,0,1-1.18-1.09,1.19,1.19,0,1,1,1.18,1.09m4.3-1.56a1.1,1.1,0,1,1,0-2.19,1.1,1.1,0,1,1,0,2.19m1.55-11.61a1.71,1.71,0,1,1,1.7-1.72,1.72,1.72,0,0,1-1.7,1.72m3.54,10.36a1.1,1.1,0,1,1,0-2.18,1.1,1.1,0,1,1,0,2.18m5.41-.66a1.11,1.11,0,1,1,0-2.2,1.1,1.1,0,1,1,0,2.2m5.28-.22a1.11,1.11,0,1,1,1.2-1.13,1.17,1.17,0,0,1-1.2,1.13m.31-12.05a1.73,1.73,0,1,1,1.72-1.73,1.71,1.71,0,0,1-1.72,1.73m5.29,12.2a1.1,1.1,0,1,1,1.2-1.09,1.15,1.15,0,0,1-1.2,1.09m5.4.73a1.1,1.1,0,1,1,1.2-1.09,1.15,1.15,0,0,1-1.2,1.09m2.26-12.25a1.71,1.71,0,1,1,1.71,1.7,1.71,1.71,0,0,1-1.71-1.7M270.37,148a1.1,1.1,0,1,1,0-2.19,1.1,1.1,0,1,1,0,2.19m4.3,1.56a1.13,1.13,0,0,1-1.2-1.09,1.15,1.15,0,0,1,1.2-1.11,1.16,1.16,0,0,1,1.2,1.11,1.15,1.15,0,0,1-1.2,1.09"></path><path class="cls-1" d="M218.91,378.75c0,.36-.45.55-1.35.55h-15c-1,0-1.48-.22-1.48-.55s.3-.56.85-.56c.9,0,1.88,0,2.88-.05,1.27-.07,2-.36,2.07-1a34,34,0,0,0,.15-3.82V344.58a10.35,10.35,0,0,0-.14-2.31c-.06-.24-.36-.36-.85-.36-.2,0-1.54.08-4,.29-.49,0-.83.07-1,.07-.5,0-.75-.15-.75-.43s.25-.52.75-.56a17.66,17.66,0,0,0,5.8-1.73,15.67,15.67,0,0,0,4.68-3.42,2.09,2.09,0,0,1,.92-.54c.31,0,.49.21.49.61v38.92a8.34,8.34,0,0,0,.2,2.55c.14.25.65.4,1.51.47H218c.56,0,.87.18.87.61"></path><path class="cls-1" d="M251.89,354.9a28.68,28.68,0,0,1-3.74,14.54,20.1,20.1,0,0,1-9.68,9.06,22.81,22.81,0,0,1-8.83,1.84c-1.08,0-1.62-.16-1.62-.43s.3-.42.87-.49c6.93-.92,11.65-4.34,14.21-10.31a32.37,32.37,0,0,0,2.16-9.18,10.9,10.9,0,0,1-7.59,3.18,12.2,12.2,0,0,1-7.37-2.45c-3.23-2.38-4.84-5.85-4.84-10.5a14.74,14.74,0,0,1,3.57-10,11.07,11.07,0,0,1,8.68-4.15,12.2,12.2,0,0,1,10.2,5.27c2.64,3.51,4,8.06,4,13.61m-6.44-4.06c0-4.64-.87-8.33-2.59-11A5.46,5.46,0,0,0,238,337c-4.22,0-6.3,4.43-6.3,13.24,0,7.57,2.33,11.35,7.05,11.35a5.51,5.51,0,0,0,4.89-2.83c1.2-1.92,1.79-4.54,1.79-8"></path><path class="cls-1" d="M278.1,378.75c0,.36-.43.55-1.33.55h-15c-1,0-1.46-.22-1.46-.55s.3-.56.85-.56c.91,0,1.86,0,2.88-.05,1.27-.07,2-.36,2.07-1a30.87,30.87,0,0,0,.16-3.82V344.58a12.29,12.29,0,0,0-.13-2.31c-.08-.24-.38-.36-.86-.36-.23,0-1.57.08-4,.29-.51,0-.85.07-1,.07-.5,0-.75-.15-.75-.43s.25-.52.73-.56a17.31,17.31,0,0,0,5.8-1.73,15.27,15.27,0,0,0,4.7-3.42,2.18,2.18,0,0,1,.9-.54c.33,0,.51.21.51.61v38.92a7.85,7.85,0,0,0,.21,2.55c.14.25.64.4,1.51.47h3.38c.56,0,.83.18.83.61"></path><path class="cls-1" d="M312.07,367.71c0,.12-.05.45-.12,1-.19,1.35-.54,4.67-1,10l0,.76c-4.22-.21-9-.33-14.41-.33-2.9,0-5.64.05-8.15.17s-3.63.16-3.3.16c-1.13,0-1.67-.21-1.67-.61s1-1.35,3.2-3.09a85.08,85.08,0,0,0,10.91-10.18,24.41,24.41,0,0,0,5.64-16c0-4.15-.87-7.29-2.6-9.39a6.6,6.6,0,0,0-5.52-2.46,7.24,7.24,0,0,0-5.5,2.15,4.86,4.86,0,0,0-1.6,3.3c0,.71.54,1.07,1.67,1.09,2.84.16,4.29,1.39,4.29,3.77s-1.18,3.34-3.56,3.34a4.69,4.69,0,0,1-3.61-1.4,5.33,5.33,0,0,1-1.36-3.84,9.18,9.18,0,0,1,3.2-7.32,12.33,12.33,0,0,1,8.38-2.74,11.91,11.91,0,0,1,8.66,3.31,13.36,13.36,0,0,1,4,10.05A19.77,19.77,0,0,1,305,361.91c-3,3.82-8.11,8-15.26,12.48,2.71-.09,6.09-.12,10.17-.12,3.4,0,5.54-.07,6.44-.16a6.34,6.34,0,0,0,2.39-.76c.58-.37,1.08-1.74,1.48-4.12.28-1.61.69-2.44,1.21-2.44s.63.31.63.92"></path><polygon class="cls-3" points="123.52 384.06 127.17 387.75 109.22 405.54 105.56 401.84 123.52 384.06"></polygon><path class="cls-3" d="M129,407.73a44.78,44.78,0,0,1-.15-4.58s-1.46,2.37-2.61,3.81l-6.69,8.18-3.77-3.06,16.1-19.76.4.35L134.65,410a36.83,36.83,0,0,1,.1,4.55s1.55-2.41,2.66-3.78l6.7-8.18,3.76,3.06-16.1,19.76-.4-.36Z"></path><path class="cls-3" d="M155.22,425.66a12.71,12.71,0,0,1,17.52-5.43c4,2.1,6.2,5.07,6.56,9.25l-4.84.66a6.86,6.86,0,0,0-3.9-5.76c-4.06-2.1-8.42-.42-10.61,3.75s-1.11,8.81,3,10.95a7.22,7.22,0,0,0,7.48-.3l2.31,4.36a11.92,11.92,0,0,1-11.94.07,12.79,12.79,0,0,1-5.53-17.55"></path><path class="cls-3" d="M194.13,429.66l.44.16,2.34,27.82-5.16-1.84-.13-3.07L182,449.27l-2.06,2.29-4.74-1.68ZM191.3,448l-.24-4.72c-.09-1.92.09-4.79.09-4.79a41.41,41.41,0,0,1-2.92,3.75l-3.16,3.51Z"></path><path class="cls-3" d="M211.33,435.18l.52.09,6.47,13.33c.61,1.26,1.27,3,1.27,3s1.3-1.46,2.27-2.38l10.73-10.1.52.11-2.69,25.44-5.09-1,1-8.9c.19-1.69.61-4.46.61-4.46a39.13,39.13,0,0,1-3,3.33l-5.62,5.15-.43-.05-3.4-6.84c-.77-1.53-1.74-4.21-1.74-4.21s-.61,2.74-1,4.37l-2.31,8.62-4.81-.88Z"></path><path class="cls-3" d="M241.1,440.12l7,.24c7.08.23,11.18,4.06,11,10.17s-4.62,9.58-11.63,9.33l-1.81-.06-.17,5.76-5.22-.18Zm6.33,15.16c4.23.16,6.14-1.49,6.26-4.94s-1.75-5.28-5.93-5.43l-1.62-.06-.36,10.36Z"></path><path class="cls-3" d="M265.12,453.42a13.07,13.07,0,1,1,14.44,11.44,12.73,12.73,0,0,1-14.44-11.44m20.65-2.25c-.53-4.71-4-7.93-8.6-7.41s-7.28,4.42-6.74,9.09,4.05,7.93,8.61,7.41,7.27-4.43,6.73-9.09"></path><path class="cls-3" d="M294.85,436.72l9.44-2.52c4.55-1.22,7.87,1,8.77,4.42a4.65,4.65,0,0,1-2.26,5.4c3.56,0,5.76,1.72,6.56,4.77,1.16,4.36-1.09,8.35-6.18,9.72l-9.89,2.6Zm11.28,6.64c1.62-.43,2.45-1.61,2.1-3a2.29,2.29,0,0,0-3.05-1.65l-4.15,1.1,1.23,4.61Zm3.67,10.8a3.29,3.29,0,0,0,2.44-4.27c-.52-2-2.22-3-4.53-2.38l-4.32,1.16,1.77,6.7Z"></path><path class="cls-3" d="M325.75,426.7l.42-.15,20.35,19.19-5,2.06-2.18-2.18-9.48,3.9v3.07l-4.64,1.93Zm10.17,15.62-3.35-3.38c-1.35-1.37-3.12-3.61-3.12-3.61a45.07,45.07,0,0,1,.35,4.77l0,4.72Z"></path><path class="cls-3" d="M348.73,438.93l2.47-4.21c1.89,1,3.78,1.51,6,.24,1.87-1.06,2.53-2.67,1.79-4-.87-1.56-2.4-1.4-5-1.16l-1.41.16c-4,.48-7.2,0-9.28-3.72-1.93-3.4-.82-7.42,3.22-9.7,2.88-1.65,5.52-1.84,8.49-.07l-2.24,4.27c-1.58-.94-2.72-1-4-.29a2.25,2.25,0,0,0-1.06,3.15c.77,1.38,1.93,1.44,4.33,1.17l1.4-.16c4.77-.52,7.9,0,10,3.7,2.31,4.09.38,8.12-3.92,10.55s-8,1.92-10.85,0"></path><path class="cls-3" d="M369.19,427l2-4.48a5.65,5.65,0,0,0,6-.5c1.72-1.25,2.19-2.92,1.3-4.15-1-1.39-2.53-1.1-5.06-.51l-1.37.3c-4,.95-7.17.8-9.67-2.62-2.31-3.14-1.67-7.29,2.08-10a7.72,7.72,0,0,1,8.4-1l-1.72,4.48c-1.66-.76-2.81-.69-4,.19a2.25,2.25,0,0,0-.7,3.26c.94,1.25,2.08,1.18,4.44.65l1.37-.32c4.69-1.09,7.81-1,10.38,2.5,2.76,3.78,1.34,8-2.65,10.9s-7.76,2.86-10.76,1.34"></path><path class="cls-3" d="M383.92,406.63a13,13,0,1,1,18.36.16,12.74,12.74,0,0,1-18.36-.16m14.87-14.49c-3.28-3.35-8-3.78-11.31-.55s-3,7.93.27,11.31,8,3.77,11.3.56,3-7.93-.26-11.32"></path><path class="cls-3" d="M61.43,351.36l-.28-.56,25.08-30.07,3.33,6.89-2.9,3.24,6.27,12.9,4.32-.25,3,6.32Zm20.91-15.5-4.42,4.95c-1.79,2-4.79,4.66-4.79,4.66a62.21,62.21,0,0,1,6.63-.88l6.63-.37Z"></path><path class="cls-3" d="M65.92,309.23a59.58,59.58,0,0,1-3.67,5.28s3.67-1.46,6.13-2.1l14.37-3.67,1.68,6.62-34.58,8.81-.18-.73L61.49,302a50.85,50.85,0,0,1,3.68-5.24s-3.78,1.46-6.14,2L44.64,302.5,43,295.9l34.6-8.81.17.69Z"></path><polygon class="cls-3" points="46.97 272.72 47.54 282.75 41.17 283.11 39.56 255.78 45.93 255.4 46.54 265.46 75.4 263.75 75.83 270.98 46.97 272.72"></polygon><polygon class="cls-3" points="40.31 243.89 40.86 236.65 76.09 239.31 75.55 246.58 40.31 243.89"></polygon><path class="cls-3" d="M59.05,227.72A17.78,17.78,0,0,1,45.46,206c1.43-6.23,4.67-10.19,10.19-12.19l2.62,6.32a9.71,9.71,0,0,0-6.44,7.36c-1.4,6.23,2.45,11.52,8.89,13s12.3-1.6,13.74-7.85c1-4.46-.55-7.44-3-10l5.06-4.67c4,4.06,5.82,9.51,4.31,16.14a17.83,17.83,0,0,1-21.75,13.69"></path><path class="cls-3" d="M69,187.79a18.29,18.29,0,0,1,15.73-33,17.9,17.9,0,0,1,8.53,24.31c-4.4,9.22-14.84,13.24-24.26,8.72m12.51-26.26c-6-2.85-12.39-1.08-15.17,4.75s-.09,11.93,5.88,14.77,12.38,1.06,15.15-4.75.11-11.94-5.86-14.77"></path><path class="cls-3" d="M87.89,119.37l.49-.55L109,121.27c1.93.2,4.55.76,4.55.76s-.75-2.62-1.08-4.46l-3.83-20.29.5-.52,28,22.41-5,5.24-9.75-7.9c-1.82-1.49-4.81-4.09-4.81-4.09a53.61,53.61,0,0,1,1.67,6.07L121.13,129l-.42.46-10.62-1.16c-2.41-.24-6.3-1.13-6.3-1.13s2.79,2.78,4.41,4.48l8.45,9.25-4.72,5Z"></path><path class="cls-3" d="M131.69,100.86A18.27,18.27,0,0,1,162.16,80.7c5.77,8.69,3.25,19.57-5.24,25.2a17.88,17.88,0,0,1-25.23-5m24.23-16c-3.63-5.48-10-7.29-15.43-3.71s-6.21,10.15-2.59,15.62S148,104,153.33,100.5s6.23-10.17,2.59-15.69"></path><polygon class="cls-3" points="165.33 60.01 172.06 57.29 182.89 84.13 197.71 78.16 200.1 84.08 178.52 92.81 165.33 60.01"></polygon><polygon class="cls-3" points="198.69 48.05 205.73 46.23 214.56 80.42 207.52 82.26 198.69 48.05"></polygon><path class="cls-3" d="M231.77,60.68a50.59,50.59,0,0,1-4.67-4.35,63.57,63.57,0,0,1,1.16,6.33l1.53,14.73-6.79.72-3.64-35.46.74-.08,19.42,14.82a51.76,51.76,0,0,1,4.65,4.39s-.88-3.93-1.12-6.37l-1.53-14.74,6.77-.69,3.64,35.47-.71,0Z"></path><path class="cls-3" d="M260.57,57.17a18.3,18.3,0,1,1,16.12,20.1,17.92,17.92,0,0,1-16.12-20.1m28.93,3.3c.74-6.56-3-12.08-9.43-12.81S268.76,51.46,268,58s3,12.08,9.44,12.83S288.77,67,289.5,60.47"></path><polygon class="cls-3" points="328.04 52.17 349.66 61.11 347.23 66.99 332.34 60.87 328.04 71.24 341.17 76.67 338.8 82.44 325.66 77 323.71 81.72 339.3 88.15 336.85 94.06 314.55 84.85 328.04 52.17"></polygon><path class="cls-3" d="M376.38,76.3l7.81,5.86c7.91,5.92,9.56,13.61,4.48,20.41s-13,7.32-20.84,1.42l-2-1.49L361,109l-5.82-4.37ZM371.5,98.75c4.74,3.58,8.26,3.21,11.16-.67s2.19-7.45-2.48-10.92l-1.8-1.37-8.7,11.63Z"></path><path class="cls-3" d="M412.58,106.66l.43.45-14.63,36.32-5.27-5.51,1.75-4L385,123.58l-4,1.56-4.84-5.06Zm-15.11,21.22,2.67-6.1c1.09-2.47,3.1-5.92,3.1-5.92s-3.48,1.89-6,2.9l-6.2,2.37Z"></path><path class="cls-3" d="M405.62,141.82l6.13,3.06c-1.27,2.71-1.7,5.43.26,8.42,1.67,2.53,4,3.29,5.73,2.13,2.06-1.37,1.72-3.51,1.11-7.08l-.37-1.94c-1-5.63-.6-10,4.32-13.31,4.55-3,10.31-1.83,13.89,3.57,2.55,3.87,3,7.5.86,11.84l-6.16-2.71c1.17-2.29,1.17-3.92,0-5.66A3.14,3.14,0,0,0,426.9,139c-1.84,1.18-1.82,2.79-1.23,6.14l.36,1.93c1.18,6.62.87,11-4.21,14.36-5.44,3.61-11.27,1.32-15.08-4.44s-3.46-11.05-1.12-15.17"></path><polygon class="cls-3" points="446.19 167.14 442.06 157.96 447.88 155.34 459.16 180.35 453.35 182.97 449.2 173.79 422.82 185.69 419.82 179.06 446.19 167.14"></polygon><polygon class="cls-3" points="462.67 191.67 464.73 198.64 430.84 208.73 428.76 201.73 462.67 191.67"></polygon><polygon class="cls-3" points="468.08 211.8 471.64 234.26 465.34 235.26 462.91 219.94 451.39 221.78 453.57 235.68 447.17 236.69 444.97 222.82 434.36 224.49 433.24 217.28 468.08 211.8"></polygon><polygon class="cls-3" points="472.32 246.39 472.55 253.68 437.21 254.72 436.99 247.45 472.32 246.39"></polygon><path class="cls-3" d="M455.33,264.36a17.77,17.77,0,0,1,15.79,20.16c-.76,6.34-3.57,10.62-8.85,13.18l-3.24-6a9.61,9.61,0,0,0,5.58-8c.77-6.35-3.62-11.23-10.17-12s-12.06,2.9-12.8,9.25c-.56,4.55,1.3,7.32,4.06,9.63l-4.53,5.15c-4.37-3.59-6.79-8.81-6-15.55a17.8,17.8,0,0,1,20.15-15.89"></path><polygon class="cls-3" points="465.76 310.73 463.82 317.74 429.72 308.35 431.66 301.34 465.76 310.73"></polygon><path class="cls-3" d="M444.24,323.39a18.3,18.3,0,1,1-24.14,9,17.9,17.9,0,0,1,24.14-9M432,349.83c6,2.78,12.41.92,15.11-4.94s0-11.93-6-14.7-12.41-.92-15.12,4.94.07,11.93,6,14.7"></path><path class="cls-3" d="M251.7,494.08a2.7,2.7,0,0,1-2.57-2.65,2.67,2.67,0,0,1,2.65-2.66,2.7,2.7,0,0,1,2.59,2.75,2.61,2.61,0,0,1-2.59,2.56Zm9,0a2.78,2.78,0,0,1-2.66-2.56,2.82,2.82,0,0,1,2.57-2.75,2.66,2.66,0,0,1,.18,5.31Zm-17.94-.36a2.61,2.61,0,0,1,.27-5.22,2.61,2.61,0,0,1-.17,5.22ZM267,491.27a2.6,2.6,0,0,1,2.47-2.77,2.61,2.61,0,0,1,.28,5.22h-.2a2.58,2.58,0,0,1-2.55-2.45m-33.23,1.81a2.53,2.53,0,0,1-2.39-2.83,2.56,2.56,0,0,1,2.84-2.4,2.62,2.62,0,0,1,2.38,2.85,2.58,2.58,0,0,1-2.65,2.38Zm42.1-2.38a2.69,2.69,0,0,1,2.38-2.93,2.78,2.78,0,0,1,2.84,2.37,2.72,2.72,0,0,1-2.37,2.94h-.28a2.58,2.58,0,0,1-2.57-2.38m-51.09,1.41h0a2.66,2.66,0,0,1-2.29-3,2.7,2.7,0,0,1,2.95-2.29h.09a2.69,2.69,0,0,1,2.2,3,2.65,2.65,0,0,1-2.58,2.29Zm59.89-2.29a2.61,2.61,0,0,1,2.27-3,2.59,2.59,0,0,1,.75,5.13.47.47,0,0,1-.38.13,2.77,2.77,0,0,1-2.64-2.29m-68.77.88a2.62,2.62,0,0,1-2.19-3,2.65,2.65,0,0,1,3-2.1,2.54,2.54,0,0,1,2.19,3,2.69,2.69,0,0,1-2.55,2.19.75.75,0,0,1-.47-.09m77.64-2.2a2.61,2.61,0,0,1,2.11-3,2.57,2.57,0,0,1,3,2.11,2.62,2.62,0,0,1-2.11,3.11h-.45a2.56,2.56,0,0,1-2.57-2.2m-86.51.59h0a2.69,2.69,0,0,1-2-3.14,2.62,2.62,0,1,1,2.55,3.19,1.94,1.94,0,0,1-.54-.05M302.32,487a2.57,2.57,0,0,1,2-3.12,2.77,2.77,0,0,1,3.12,2,2.71,2.71,0,0,1-2,3.16,1.24,1.24,0,0,1-.56.09,2.55,2.55,0,0,1-2.58-2.14M198.25,487a2.65,2.65,0,0,1-1.93-3.21,2.75,2.75,0,0,1,3.2-1.91,2.67,2.67,0,0,1,1.92,3.19,2.63,2.63,0,0,1-2.55,2,1.53,1.53,0,0,1-.64-.09M311,485a2.63,2.63,0,0,1,1.93-3.22,2.68,2.68,0,0,1,3.1,1.93,2.62,2.62,0,0,1-1.92,3.21,1.36,1.36,0,0,1-.63.09,2.62,2.62,0,0,1-2.48-2m-121.47-.28h0a2.64,2.64,0,0,1-1.76-3.3,2.52,2.52,0,0,1,3.21-1.73,2.6,2.6,0,0,1-.73,5.11c-.2,0-.46-.08-.72-.08m130.08-1.93a2.59,2.59,0,0,1,1.73-3.28,2.68,2.68,0,0,1,3.3,1.82,2.58,2.58,0,0,1-1.84,3.21,1.76,1.76,0,0,1-.73.09,2.62,2.62,0,0,1-2.46-1.84M181,482a2.61,2.61,0,1,1,3.3-1.65,2.67,2.67,0,0,1-2.49,1.84A3.16,3.16,0,0,1,181,482m147.19-1.74a2.69,2.69,0,0,1,1.65-3.38,2.63,2.63,0,1,1-1.65,3.38m-155.71-1.2a2.69,2.69,0,0,1-1.55-3.38,2.64,2.64,0,1,1,5,1.84,2.6,2.6,0,0,1-2.48,1.65,2.64,2.64,0,0,1-.92-.11m164.13-1.73a2.65,2.65,0,0,1,1.56-3.39,2.61,2.61,0,0,1,3.4,1.57A2.67,2.67,0,0,1,340,478.9a3.31,3.31,0,0,1-.9.17,2.59,2.59,0,0,1-2.5-1.73M164,475.69a2.64,2.64,0,0,1,2.12-4.84,2.71,2.71,0,0,1,1.37,3.47,2.63,2.63,0,0,1-2.48,1.56,2.12,2.12,0,0,1-1-.19m180.89-1.56a2.58,2.58,0,0,1,1.37-3.39,2.45,2.45,0,0,1,3.39,1.37,2.62,2.62,0,0,1-1.37,3.49,3.37,3.37,0,0,1-1,.18,2.58,2.58,0,0,1-2.38-1.65M155.79,472a2.63,2.63,0,0,1-1.29-3.47,2.71,2.71,0,0,1,3.47-1.29,2.65,2.65,0,0,1-1.09,5,2.3,2.3,0,0,1-1.09-.28m197.27-1.37a2.62,2.62,0,1,1,4.75-2.19,2.73,2.73,0,0,1-1.28,3.47,4.59,4.59,0,0,1-1.11.17,2.6,2.6,0,0,1-2.36-1.45m-205.34-2.57a2.62,2.62,0,1,1,2.37-4.67,2.64,2.64,0,0,1,1.1,3.58,2.5,2.5,0,0,1-2.29,1.37,2.42,2.42,0,0,1-1.18-.28M361,466.82A2.67,2.67,0,1,1,364.6,468a2.83,2.83,0,0,1-1.2.28,2.79,2.79,0,0,1-2.39-1.46m-221.26-2.93a2.71,2.71,0,0,1-1-3.66,2.63,2.63,0,0,1,3.58-.92,2.58,2.58,0,0,1,1,3.57,2.76,2.76,0,0,1-2.29,1.29,3.13,3.13,0,0,1-1.29-.28m229.15-1.2a2.65,2.65,0,0,1,1.1-3.56,2.61,2.61,0,0,1,3.57,1,2.77,2.77,0,0,1-1,3.56,2.54,2.54,0,0,1-1.3.36,2.78,2.78,0,0,1-2.36-1.37M132,459.31h0a2.68,2.68,0,0,1-.92-3.66,2.76,2.76,0,0,1,3.66-.82,2.6,2.6,0,0,1,.81,3.56,2.54,2.54,0,0,1-2.18,1.28,2.29,2.29,0,0,1-1.37-.36m244.7-1a2.62,2.62,0,1,1,4.47-2.74,2.62,2.62,0,1,1-4.47,2.74m-252.3-3.83h0a2.57,2.57,0,0,1-.73-3.67,2.51,2.51,0,0,1,3.57-.72,2.68,2.68,0,0,1,.82,3.66,2.83,2.83,0,0,1-2.19,1.18,2.79,2.79,0,0,1-1.47-.45m259.79-.92a2.62,2.62,0,1,1,3.67.73,2.19,2.19,0,0,1-1.46.46,2.66,2.66,0,0,1-2.21-1.19M117,449.33h0a2.62,2.62,0,1,1,3.68-.64,2.72,2.72,0,0,1-2.1,1.11,3.14,3.14,0,0,1-1.58-.47m274.65-.73a2.54,2.54,0,0,1,.54-3.66,2.71,2.71,0,0,1,3.66.55,2.64,2.64,0,0,1-2.1,4.2,2.42,2.42,0,0,1-2.1-1.09m-281.89-4.67a2.64,2.64,0,0,1-.45-3.75,2.72,2.72,0,0,1,3.66-.45,2.62,2.62,0,0,1,.45,3.75,2.51,2.51,0,0,1-2,1,2.63,2.63,0,0,1-1.67-.56m289-.64a2.61,2.61,0,1,1,4.12-3.19,2.59,2.59,0,0,1-2,4.2,2.49,2.49,0,0,1-2.12-1m-296.06-5a2.76,2.76,0,0,1-.26-3.79,2.71,2.71,0,0,1,3.74-.24,2.61,2.61,0,0,1,.28,3.66,2.57,2.57,0,0,1-2,.92,3.1,3.1,0,0,1-1.75-.55m303-.45a2.71,2.71,0,0,1,.37-3.75,2.57,2.57,0,0,1,3.68.36,2.62,2.62,0,0,1-.3,3.66,2.53,2.53,0,0,1-1.73.65,2.63,2.63,0,0,1-2-.92M95.9,432.29H96a2.63,2.63,0,0,1-.18-3.75,2.71,2.71,0,0,1,3.66-.19,2.67,2.67,0,0,1,.18,3.78,2.53,2.53,0,0,1-1.91.8,2.71,2.71,0,0,1-1.84-.64m316.58-.24a2.66,2.66,0,1,1,3.92-3.61,2.72,2.72,0,0,1-.17,3.69,2.47,2.47,0,0,1-1.84.73,2.84,2.84,0,0,1-1.91-.81m-323.07-6a2.47,2.47,0,0,1,0-3.63,2.56,2.56,0,0,1,3.66-.12,2.63,2.63,0,0,1,0,3.75,2.35,2.35,0,0,1-1.84.83,2.28,2.28,0,0,1-1.82-.83M419.05,426a2.63,2.63,0,0,1,0-3.75,2.76,2.76,0,0,1,3.77,0,2.71,2.71,0,0,1-.1,3.75,2.74,2.74,0,0,1-1.83.73,2.81,2.81,0,0,1-1.84-.73m-336-6.28a2.64,2.64,0,0,1,3.84-3.61,2.6,2.6,0,0,1-.18,3.66,2.05,2.05,0,0,1-1.73.73,2.71,2.71,0,0,1-1.93-.78m342.19,0a2.75,2.75,0,0,1-.08-3.78,2.65,2.65,0,1,1,3.83,3.66,2.66,2.66,0,0,1-1.92.85,3.18,3.18,0,0,1-1.83-.73M77.05,413.06a2.62,2.62,0,0,1,.16-3.75,2.66,2.66,0,0,1,3.76.28,2.6,2.6,0,0,1-.27,3.66,2.65,2.65,0,0,1-3.65-.19m354.36.1a2.73,2.73,0,0,1-.26-3.76,2.63,2.63,0,0,1,3.75-.17,2.52,2.52,0,0,1,.17,3.66,2.48,2.48,0,0,1-1.91.92,2.94,2.94,0,0,1-1.75-.65m-360.22-7a2.61,2.61,0,0,1,.36-3.66,2.69,2.69,0,0,1,3.75.36,2.72,2.72,0,0,1-.36,3.75,3,3,0,0,1-1.74.56,2.72,2.72,0,0,1-2-1m366,.26a2.64,2.64,0,0,1-.36-3.66A2.65,2.65,0,1,1,441,406a2.66,2.66,0,0,1-2,.92,3.15,3.15,0,0,1-1.77-.56M65.6,399.07h.09a2.59,2.59,0,0,1,.45-3.66,2.54,2.54,0,0,1,3.66.54,2.61,2.61,0,0,1-.45,3.66,2.36,2.36,0,0,1-1.56.45,2.92,2.92,0,0,1-2.19-1m377.18.37a2.72,2.72,0,0,1-.56-3.66,2.77,2.77,0,0,1,3.77-.56,2.62,2.62,0,0,1,.45,3.66,2.45,2.45,0,0,1-2.1,1.1,2.68,2.68,0,0,1-1.56-.54m-382.4-7.69a2.6,2.6,0,1,1,3.66.73,3,3,0,0,1-1.46.45,2.56,2.56,0,0,1-2.2-1.18m387.71.54a2.66,2.66,0,1,1,3.66-.73,2.74,2.74,0,0,1-2.21,1.2,3,3,0,0,1-1.45-.47m-392.75-8h0a2.73,2.73,0,0,1,.84-3.64,2.59,2.59,0,0,1,3.66.81,2.65,2.65,0,0,1-.83,3.58,2.68,2.68,0,0,1-1.38.45,2.84,2.84,0,0,1-2.29-1.2m397.78.56a2.66,2.66,0,0,1-.83-3.58v-.08a2.67,2.67,0,0,1,3.66-.73,2.63,2.63,0,0,1,.83,3.57,2.51,2.51,0,0,1-3.66.82M50.68,376.64a2.6,2.6,0,1,1,3.57.92,2.13,2.13,0,0,1-1.28.36,2.6,2.6,0,0,1-2.29-1.28m407.19.74a2.68,2.68,0,0,1-.92-3.66,2.65,2.65,0,0,1,3.58-.92,2.59,2.59,0,0,1,.92,3.58,2.53,2.53,0,0,1-2.29,1.37,3.11,3.11,0,0,1-1.29-.37m-411.6-8.52a2.52,2.52,0,0,1,1-3.56,2.62,2.62,0,1,1,2.57,4.57,3.33,3.33,0,0,1-1.28.28,2.65,2.65,0,0,1-2.31-1.29m416.1.73a2.59,2.59,0,1,1,2.46-4.56,2.65,2.65,0,0,1,1.1,3.55,2.93,2.93,0,0,1-2.38,1.39,2,2,0,0,1-1.18-.38M42.16,360.81a2.61,2.61,0,0,1,4.68-2.29A2.58,2.58,0,0,1,45.63,362a2.3,2.3,0,0,1-1.08.31,2.65,2.65,0,0,1-2.39-1.47m424.32.92a2.64,2.64,0,0,1-1.2-3.51,2.6,2.6,0,1,1,4.67,2.29,2.6,2.6,0,0,1-2.29,1.46,2.43,2.43,0,0,1-1.18-.24M38.3,352.67a2.66,2.66,0,0,1,4.88-2.13,2.83,2.83,0,0,1-1.39,3.5,4.8,4.8,0,0,1-1.09.19,2.65,2.65,0,0,1-2.4-1.56m432,1a2.62,2.62,0,0,1,2.22-4.75,2.51,2.51,0,0,1,1.26,3.38,2.64,2.64,0,0,1-2.37,1.68,2.42,2.42,0,0,1-1.11-.31M34.83,344.41a2.6,2.6,0,1,1,3.39,1.46,3.38,3.38,0,0,1-.91.17,2.61,2.61,0,0,1-2.48-1.63m439.06,1.09a2.65,2.65,0,0,1,1.93-4.94,2.62,2.62,0,0,1,1.46,3.47,2.57,2.57,0,0,1-2.38,1.65,2.76,2.76,0,0,1-1-.18M31.62,336a2.71,2.71,0,0,1,1.65-3.39,2.53,2.53,0,0,1,3.3,1.65,2.51,2.51,0,0,1-1.55,3.3,2.56,2.56,0,0,1-3.4-1.56m445.5,1.19a2.65,2.65,0,0,1-1.56-3.38,2.55,2.55,0,0,1,3.36-1.56,2.61,2.61,0,0,1,1.57,3.3,2.54,2.54,0,0,1-2.49,1.73,3.27,3.27,0,0,1-.88-.09m-448.33-9.7h0a2.58,2.58,0,0,1,1.74-3.29,2.62,2.62,0,0,1,3.31,1.65,2.83,2.83,0,0,1-2.58,3.47,2.64,2.64,0,0,1-2.47-1.83M480,328.76a2.73,2.73,0,0,1-1.72-3.3,2.55,2.55,0,0,1,3.28-1.73,2.5,2.5,0,0,1,1.75,3.29,2.64,2.64,0,0,1-2.48,1.82c-.26,0-.54-.08-.83-.08m-453.8-10a2.65,2.65,0,0,1,1.84-3.21,2.71,2.71,0,0,1,3.3,1.84,2.62,2.62,0,0,1-1.84,3.19,1.69,1.69,0,0,1-.73.11,2.67,2.67,0,0,1-2.57-1.93m456.45,1.37a2.6,2.6,0,0,1-1.91-3.21,2.69,2.69,0,0,1,3.3-1.82,2.66,2.66,0,0,1,1.84,3.21,2.63,2.63,0,0,1-2.57,1.91,1.72,1.72,0,0,1-.66-.09M24,310.09a2.71,2.71,0,0,1,2-3.21A2.63,2.63,0,0,1,27.23,312a1.75,1.75,0,0,1-.64.09,2.64,2.64,0,0,1-2.55-2m460.85,1.45a2.53,2.53,0,0,1-1.92-3.1,2.61,2.61,0,0,1,3.1-2,2.8,2.8,0,0,1,2,3.21,2.66,2.66,0,0,1-2.55,2,1.14,1.14,0,0,1-.65-.11M22.2,301.2a2.6,2.6,0,1,1,3,2.12.73.73,0,0,1-.45.08,2.65,2.65,0,0,1-2.57-2.2m464.6,1.65a2.61,2.61,0,1,1,1-5.12,2.6,2.6,0,0,1,2.12,3,2.73,2.73,0,0,1-2.59,2.2,1.1,1.1,0,0,1-.54-.1M20.65,292.33a2.56,2.56,0,0,1,2.19-2.93,2.59,2.59,0,0,1,3,2.2,2.62,2.62,0,0,1-2.19,2.92.77.77,0,0,1-.46.1,2.56,2.56,0,0,1-2.56-2.29m467.8,1.74a2.53,2.53,0,0,1-2.19-2.95,2.57,2.57,0,0,1,2.94-2.21,2.64,2.64,0,0,1-.38,5.25.58.58,0,0,1-.37-.09m-469-10.64a2.63,2.63,0,0,1,5.22-.62,2.56,2.56,0,0,1-2.29,2.89H22a2.55,2.55,0,0,1-2.57-2.27m470.28,1.86a2.63,2.63,0,1,1,.55-5.23,2.62,2.62,0,0,1-.28,5.23ZM18.64,274.46A2.48,2.48,0,0,1,21,271.65a2.6,2.6,0,1,1,.36,5.19.27.27,0,0,1-.19.12,2.69,2.69,0,0,1-2.55-2.5m472,1.93a2.63,2.63,0,0,1-2.46-2.76,2.66,2.66,0,0,1,2.83-2.47A2.58,2.58,0,0,1,493.4,274a2.52,2.52,0,0,1-2.55,2.4ZM18.09,265.49a2.61,2.61,0,1,1,5.22-.19A2.56,2.56,0,0,1,20.83,268h-.09a2.61,2.61,0,0,1-2.65-2.46m473.12,2a2.64,2.64,0,0,1-2.57-2.65h.09a2.59,2.59,0,0,1,2.65-2.57A2.72,2.72,0,0,1,494,265a2.67,2.67,0,0,1-2.65,2.46ZM17.9,256.43a2.65,2.65,0,0,1,2.65-2.57,2.61,2.61,0,0,1,0,5.22,2.65,2.65,0,0,1-2.65-2.65M488.82,256h0c0-.11.1-.28.1-.37a1.11,1.11,0,0,1-.1-.55,2.65,2.65,0,0,1,2.65-2.57,2.57,2.57,0,0,1,2.66,2.57.69.69,0,0,1-.09.45,1,1,0,0,1,.09.47,2.66,2.66,0,0,1-5.31,0M20.55,250.2a2.65,2.65,0,0,1,.19-5.29,2.7,2.7,0,0,1,2.57,2.74,2.64,2.64,0,0,1-2.66,2.55Zm468.09-3.92a2.67,2.67,0,0,1,2.57-2.76,2.6,2.6,0,0,1,2.66,2.57H494a2.72,2.72,0,0,1-2.57,2.74h-.08a2.7,2.7,0,0,1-2.66-2.55M20.91,241.33a2.71,2.71,0,0,1-2.37-2.84,2.62,2.62,0,1,1,2.65,2.84Zm467.18-3.85a2.7,2.7,0,0,1,2.48-2.83,2.78,2.78,0,0,1,2.83,2.46,2.72,2.72,0,0,1-2.47,2.85h-.19a2.77,2.77,0,0,1-2.65-2.48m-466.43-5a2.58,2.58,0,0,1-2.29-2.92,2.62,2.62,0,0,1,5.21.54,2.67,2.67,0,0,1-2.66,2.38Zm465.61-3.75a2.62,2.62,0,1,1,2.93,2.38h-.27a2.67,2.67,0,0,1-2.66-2.38M22.75,223.58a2.71,2.71,0,0,1-2.29-3,2.81,2.81,0,0,1,3-2.2,2.62,2.62,0,0,1-.36,5.22ZM486.07,220a2.67,2.67,0,0,1,2.21-3,2.77,2.77,0,0,1,3,2.21,2.72,2.72,0,0,1-2.21,3h-.36a2.67,2.67,0,0,1-2.66-2.21M24.13,214.76a2.58,2.58,0,0,1-2.1-3.1,2.6,2.6,0,1,1,5.11,1,2.48,2.48,0,0,1-2.56,2.11Zm460.47-3.48a2.58,2.58,0,0,1,2-3,2.6,2.6,0,1,1,1,5.1h-.46a2.49,2.49,0,0,1-2.58-2.11M25.86,206a2.55,2.55,0,0,1-2-3.11,2.66,2.66,0,0,1,3.12-2,2.71,2.71,0,0,1,2,3.21,2.64,2.64,0,0,1-2.56,2,1.1,1.1,0,0,1-.56-.1m456.81-3.31a2.66,2.66,0,0,1,2-3.13,2.55,2.55,0,0,1,3.11,2,2.61,2.61,0,0,1-1.91,3.18h-.64a2.76,2.76,0,0,1-2.59-2m-454.8-5.32a2.69,2.69,0,0,1-1.82-3.29,2.57,2.57,0,0,1,3.19-1.82,2.65,2.65,0,0,1-.72,5.2c-.18,0-.46-.09-.65-.09m452.72-3.21a2.61,2.61,0,0,1,5-1.37A2.7,2.7,0,0,1,483.8,196a3.89,3.89,0,0,1-.76.05,2.49,2.49,0,0,1-2.45-1.93M30.25,188.77a2.63,2.63,0,0,1,1.56-5A2.72,2.72,0,0,1,33.55,187a2.81,2.81,0,0,1-3.3,1.74m447.75-3a2.71,2.71,0,0,1,1.76-3.3A2.58,2.58,0,0,1,483,184.1a2.55,2.55,0,0,1-1.63,3.3,3.23,3.23,0,0,1-.82.19,2.84,2.84,0,0,1-2.59-1.84M32.91,180.26a2.63,2.63,0,0,1-1.55-3.38,2.44,2.44,0,0,1,3.28-1.56,2.5,2.5,0,0,1,1.65,3.3,2.54,2.54,0,0,1-2.45,1.73,3.51,3.51,0,0,1-.93-.09m442.37-2.84h0a2.56,2.56,0,0,1,1.56-3.39,2.64,2.64,0,0,1,3.39,1.57,2.73,2.73,0,0,1-1.67,3.38,2.67,2.67,0,0,1-.82.17,2.63,2.63,0,0,1-2.46-1.73M36,171.85a2.69,2.69,0,0,1-1.56-3.4A2.65,2.65,0,0,1,37.94,167a2.61,2.61,0,0,1,1.47,3.38A2.67,2.67,0,0,1,37,172a1.74,1.74,0,0,1-.92-.17m436.14-2.66a2.69,2.69,0,0,1,1.36-3.49,2.76,2.76,0,0,1,3.47,1.48,2.57,2.57,0,0,1-1.44,3.38,2.22,2.22,0,0,1-1,.28,2.55,2.55,0,0,1-2.36-1.65M39.31,163.61a2.82,2.82,0,0,1-1.37-3.48,2.7,2.7,0,0,1,3.49-1.38,2.66,2.66,0,0,1,1.37,3.48,2.54,2.54,0,0,1-2.36,1.55,5.42,5.42,0,0,1-1.13-.17M468.67,161a2.72,2.72,0,0,1,1.28-3.47,2.66,2.66,0,0,1,2.22,4.84,2.31,2.31,0,0,1-1.11.19,2.62,2.62,0,0,1-2.39-1.56M43,155.43a2.65,2.65,0,0,1-1.2-3.54,2.62,2.62,0,0,1,3.49-1.2,2.72,2.72,0,0,1,1.2,3.58h.08a2.72,2.72,0,0,1-2.37,1.46,2.48,2.48,0,0,1-1.2-.3m421.93-2.34a2.61,2.61,0,0,1,1.2-3.49,2.65,2.65,0,0,1,3.55,1.2,2.71,2.71,0,0,1-1.18,3.56,2.61,2.61,0,0,1-1.19.19,2.52,2.52,0,0,1-2.38-1.46M47,147.5a2.65,2.65,0,1,1,2.49-4.67,2.6,2.6,0,0,1,1,3.58,2.74,2.74,0,0,1-2.29,1.37,2.79,2.79,0,0,1-1.2-.28m413.88-2.2h0a2.72,2.72,0,0,1,1.11-3.59,2.65,2.65,0,0,1,2.47,4.7,3.13,3.13,0,0,1-1.29.26,2.52,2.52,0,0,1-2.29-1.37M51.23,139.62a2.61,2.61,0,0,1-.92-3.59V136a2.63,2.63,0,1,1,4.48,2.76A2.62,2.62,0,0,1,52.6,140a3.65,3.65,0,0,1-1.37-.35m405.36-1.94h0a2.64,2.64,0,0,1,.92-3.63,2.6,2.6,0,0,1,3.57.89,2.7,2.7,0,0,1-.92,3.68,2.81,2.81,0,0,1-1.28.36,2.67,2.67,0,0,1-2.29-1.3M55.81,131.94a2.69,2.69,0,0,1-.83-3.6v-.08a2.65,2.65,0,1,1,2.2,4.11,3,3,0,0,1-1.37-.43m396.13-1.74a2.78,2.78,0,0,1,.81-3.68,2.65,2.65,0,0,1,3.67.85,2.6,2.6,0,0,1-.84,3.54,2,2,0,0,1-1.37.45,2.84,2.84,0,0,1-2.27-1.16M60.65,124.4a2.65,2.65,0,0,1-.64-3.66,2.55,2.55,0,0,1,3.58-.64,2.59,2.59,0,0,1,.73,3.66,2.78,2.78,0,0,1-2.21,1.11,2.3,2.3,0,0,1-1.46-.47m386.43-1.54h0a2.63,2.63,0,1,1,3.64.62,2.2,2.2,0,0,1-1.56.47,2.38,2.38,0,0,1-2.08-1.09M65.77,117.18a2.74,2.74,0,0,1-.53-3.76A2.62,2.62,0,0,1,68.9,113a2.53,2.53,0,0,1,.53,3.66,2.59,2.59,0,0,1-2.09,1,2.42,2.42,0,0,1-1.57-.46m376.07-1.47a2.64,2.64,0,0,1,.57-3.66,2.54,2.54,0,0,1,3.65.55,2.62,2.62,0,0,1-.44,3.67,3.05,3.05,0,0,1-1.65.53,2.75,2.75,0,0,1-2.13-1.09M71.19,110a2.63,2.63,0,0,1-.38-3.67,2.46,2.46,0,0,1,3.66-.36,2.6,2.6,0,0,1,.36,3.66,2.44,2.44,0,0,1-2,.92,2.78,2.78,0,0,1-1.63-.55m365.25-1.18a2.74,2.74,0,0,1,.37-3.75,2.62,2.62,0,0,1,3.68.36,2.74,2.74,0,0,1-.37,3.75,2.79,2.79,0,0,1-1.66.54,2.61,2.61,0,0,1-2-.9m-359.6-5.68a2.72,2.72,0,0,1-.26-3.75,2.6,2.6,0,0,1,3.75-.19,2.57,2.57,0,0,1,.19,3.66,2.28,2.28,0,0,1-1.92.92,2.55,2.55,0,0,1-1.76-.64m353.93-1.11a2.5,2.5,0,0,1,.19-3.64,2.63,2.63,0,0,1,3.75.17,2.68,2.68,0,0,1-.28,3.75,2.56,2.56,0,0,1-3.66-.28m-348-5.57a2.6,2.6,0,0,1-.11-3.66,2.65,2.65,0,0,1,3.77-.19,2.72,2.72,0,0,1,.09,3.76,2.66,2.66,0,0,1-3.75.09m342.1-.92a2.59,2.59,0,1,1,3.66.09,2.19,2.19,0,0,1-1.75.74,2.46,2.46,0,0,1-1.91-.83M88.94,90.1a2.58,2.58,0,0,1,0-3.77A2.63,2.63,0,0,1,92.6,90.1a2.37,2.37,0,0,1-1.82.72,2.45,2.45,0,0,1-1.84-.72m329.66-.75a2.72,2.72,0,0,1,0-3.75,2.62,2.62,0,0,1,3.75,3.66,2.58,2.58,0,0,1-1.92.84,2.91,2.91,0,0,1-1.83-.75M95.26,83.87a2.59,2.59,0,0,1,.19-3.67,2.62,2.62,0,1,1,1.73,4.5,2.79,2.79,0,0,1-1.92-.83m316.92-.56h0a2.65,2.65,0,0,1-.17-3.75A2.66,2.66,0,1,1,413.94,84a2.42,2.42,0,0,1-1.76-.64m-310.24-5.4a2.62,2.62,0,0,1,.28-3.74,2.72,2.72,0,0,1,3.74.36,2.6,2.6,0,0,1-.36,3.66,2.36,2.36,0,0,1-1.65.64,2.46,2.46,0,0,1-2-.92m303.58-.36a2.72,2.72,0,0,1-.3-3.75,2.64,2.64,0,1,1,2,4.3,3,3,0,0,1-1.72-.55M108.71,72.24a2.85,2.85,0,0,1,.46-3.78v.12a2.73,2.73,0,0,1,3.75.36,2.83,2.83,0,0,1-.45,3.77,3,3,0,0,1-1.65.54,2.74,2.74,0,0,1-2.11-1m290-.3a2.6,2.6,0,1,1,3.21-4.09,2.74,2.74,0,0,1,.47,3.66,2.92,2.92,0,0,1-2.13,1,2.32,2.32,0,0,1-1.55-.58m-283-5.18a2.68,2.68,0,0,1,.66-3.67,2.62,2.62,0,0,1,3,4.27,2.4,2.4,0,0,1-1.46.49,2.82,2.82,0,0,1-2.22-1.09m275.85,0h0a2.56,2.56,0,0,1-.55-3.67,2.62,2.62,0,0,1,3.66-.67,2.67,2.67,0,0,1,.55,3.69,2.47,2.47,0,0,1-2.11,1.1,3.11,3.11,0,0,1-1.55-.45M123.09,61.6a2.6,2.6,0,1,1,4.31-2.9,2.54,2.54,0,0,1-.73,3.63,2.82,2.82,0,0,1-1.48.45,2.56,2.56,0,0,1-2.1-1.18m261.27.09a2.64,2.64,0,0,1,2.94-4.39A2.78,2.78,0,0,1,388,61a2.93,2.93,0,0,1-2.21,1.18,2.52,2.52,0,0,1-1.46-.48M130.5,56.74a2.66,2.66,0,0,1,.83-3.66,2.79,2.79,0,0,1,3.67.83,2.68,2.68,0,0,1-.92,3.67,2.61,2.61,0,0,1-1.37.36,2.71,2.71,0,0,1-2.21-1.2M377,57h0a2.63,2.63,0,0,1-.92-3.61,2.66,2.66,0,0,1,3.66-.92,2.73,2.73,0,0,1,.81,3.66,2.46,2.46,0,0,1-2.18,1.28A2.66,2.66,0,0,1,377,57M138.1,52.07a2.56,2.56,0,0,1,1-3.55,2.62,2.62,0,1,1,2.57,4.56,2.32,2.32,0,0,1-1.29.37,2.5,2.5,0,0,1-2.29-1.38m231.24.47h-.07a2.66,2.66,0,0,1-.94-3.57,2.51,2.51,0,0,1,3.51-1,2.68,2.68,0,0,1,1.07,3.58,2.8,2.8,0,0,1-3.57,1M145.88,47.79A2.63,2.63,0,0,1,147,44.21a2.75,2.75,0,0,1,3.57,1.18,2.55,2.55,0,0,1-1.2,3.49,1.78,1.78,0,0,1-1.19.37,2.64,2.64,0,0,1-2.29-1.46m215.6.54a2.55,2.55,0,0,1-1.11-3.47A2.62,2.62,0,1,1,365,47.23a2.55,2.55,0,0,1-2.27,1.46,2.31,2.31,0,0,1-1.28-.36M153.77,43.76A2.73,2.73,0,0,1,155,40.27,2.64,2.64,0,0,1,157.33,45a2.75,2.75,0,0,1-1.18.28,2.64,2.64,0,0,1-2.38-1.55m199.83.73h0A2.53,2.53,0,0,1,352.31,41a2.72,2.72,0,0,1,3.49-1.28,2.66,2.66,0,0,1,1.27,3.49,2.5,2.5,0,0,1-3.47,1.28M161.91,40.1a2.56,2.56,0,0,1,1.37-3.49A2.65,2.65,0,0,1,166.67,38a2.57,2.57,0,0,1-1.37,3.49,2,2,0,0,1-1,.18,2.47,2.47,0,0,1-2.38-1.55m183.55.9h.09a2.67,2.67,0,0,1-1.46-3.47,2.54,2.54,0,0,1,3.47-1.37,2.63,2.63,0,0,1,1.37,3.39,2.68,2.68,0,0,1-2.46,1.64,3.77,3.77,0,0,1-1-.19M170.05,36.72a2.67,2.67,0,0,1,1.56-3.4A2.58,2.58,0,0,1,175,34.79a2.63,2.63,0,0,1-1.57,3.38,1.59,1.59,0,0,1-.9.18,2.62,2.62,0,0,1-2.48-1.63m167.27,1h0a2.56,2.56,0,0,1-1.56-3.39,2.61,2.61,0,0,1,3.38-1.54,2.72,2.72,0,0,1,1.56,3.38,2.75,2.75,0,0,1-2.48,1.74,2.39,2.39,0,0,1-.9-.19M178.38,33.59a2.71,2.71,0,0,1,1.74-3.38,2.67,2.67,0,0,1,3.31,1.73,2.63,2.63,0,0,1-1.67,3.3,2.43,2.43,0,0,1-.81.09,2.67,2.67,0,0,1-2.57-1.74M329,34.79a2.62,2.62,0,0,1-1.65-3.3,2.58,2.58,0,0,1,3.32-1.64,2.6,2.6,0,0,1,1.63,3.29A2.64,2.64,0,0,1,329.79,35a2.79,2.79,0,0,1-.82-.17M186.9,30.85a2.63,2.63,0,1,1,5-1.56,2.67,2.67,0,0,1-1.75,3.3,2.5,2.5,0,0,1-.73.08,2.55,2.55,0,0,1-2.55-1.82m133.66,1.37a2.68,2.68,0,0,1-1.84-3.29A2.57,2.57,0,0,1,322,27.19a2.62,2.62,0,0,1-.72,5.12,1.76,1.76,0,0,1-.73-.09M195.4,28.39a2.71,2.71,0,0,1,1.93-3.21,2.56,2.56,0,0,1,3.19,1.92,2.61,2.61,0,0,1-1.91,3.2H198a2.74,2.74,0,0,1-2.57-1.91M312,29.93a2.62,2.62,0,0,1-1.93-3.19,2.65,2.65,0,1,1,2.57,3.3,1.15,1.15,0,0,1-.64-.11M204.1,26.27a2.64,2.64,0,0,1,2-3.11,2.55,2.55,0,0,1,3.11,2,2.6,2.6,0,0,1-2,3.1h-.53a2.63,2.63,0,0,1-2.57-2M303.43,28a2.66,2.66,0,0,1,1.11-5.21,2.69,2.69,0,0,1,2,3.11A2.59,2.59,0,0,1,304,28Zm-90.64-3.56a2.67,2.67,0,0,1,2.21-3,2.63,2.63,0,0,1,3,2.1,2.57,2.57,0,0,1-2.11,3,1.11,1.11,0,0,1-.45.08,2.72,2.72,0,0,1-2.66-2.18m81.94,1.92a2.65,2.65,0,0,1,.92-5.22,2.84,2.84,0,0,1,2.21,3,2.67,2.67,0,0,1-2.66,2.2ZM221.59,23a2.62,2.62,0,0,1,5.21-.64,2.64,2.64,0,0,1-2.19,2.93h-.37A2.62,2.62,0,0,1,221.59,23M286,25.09A2.64,2.64,0,1,1,289,22.8a2.5,2.5,0,0,1-2.56,2.29Zm-55.57-3.21a2.52,2.52,0,0,1,2.38-2.83,2.6,2.6,0,0,1,2.83,2.29,2.71,2.71,0,0,1-2.39,2.92H233a2.58,2.58,0,0,1-2.56-2.38m46.86,2.2A2.52,2.52,0,0,1,275,21.24a2.59,2.59,0,0,1,2.83-2.38,2.72,2.72,0,0,1,2.37,2.85,2.67,2.67,0,0,1-2.65,2.46c-.09,0-.09-.09-.19-.09m-38-3a2.62,2.62,0,1,1,2.74,2.47h-.17a2.56,2.56,0,0,1-2.57-2.47m29.21,2.38a2.61,2.61,0,1,1,.28-5.22,2.61,2.61,0,0,1-.18,5.22ZM248.23,20.6a2.63,2.63,0,0,1,2.55-2.66,2.58,2.58,0,0,1,2.65,2.57,2.5,2.5,0,0,1-2.55,2.65,2.57,2.57,0,0,1-2.65-2.56m11.54,2.56a2.61,2.61,0,1,1,2.65-2.56,2.62,2.62,0,0,1-2.65,2.56"></path></svg>